<svg width="32" height="32" viewBox="0 0 32 32" fill="none" xmlns="http://www.w3.org/2000/svg">
<rect width="32" height="32" rx="5" fill="#8B21DF"/>
<path d="M15.16 7.668C14.2453 9.03067 13.2373 10.384 12.136 11.728C11.0533 13.072 9.87733 14.416 8.608 15.76C9.20533 16.264 9.84 16.852 10.512 17.524C11.184 18.196 11.8373 18.9333 12.472 19.736C13.1253 20.52 13.732 21.36 14.292 22.256C14.8707 23.152 15.356 24.0667 15.748 25H13.144C12.6773 24.1413 12.1733 23.3013 11.632 22.48C11.0907 21.6587 10.512 20.8933 9.896 20.184C9.29867 19.4747 8.67333 18.8307 8.02 18.252C7.38533 17.6547 6.74133 17.1413 6.088 16.712V25H3.792V7.668H6.088V15.396C7.30133 14.1453 8.45867 12.8387 9.56 11.476C10.68 10.1133 11.66 8.844 12.5 7.668H15.16Z" fill="white"/>
<path d="M28.88 16.32C28.88 17.9253 28.6747 19.288 28.264 20.408C27.872 21.528 27.3213 22.4427 26.612 23.152C25.9213 23.8427 25.0907 24.3467 24.12 24.664C23.168 24.9813 22.132 25.14 21.012 25.14C19.8547 25.14 18.688 25 17.512 24.72V7.92C18.688 7.64 19.8547 7.5 21.012 7.5C22.132 7.5 23.168 7.65867 24.12 7.976C25.0907 8.29333 25.9213 8.80667 26.612 9.516C27.3213 10.2253 27.872 11.14 28.264 12.26C28.6747 13.38 28.88 14.7333 28.88 16.32ZM19.808 23.068C20.2747 23.124 20.7507 23.152 21.236 23.152C22.076 23.152 22.8227 23.0307 23.476 22.788C24.1293 22.5267 24.68 22.1253 25.128 21.584C25.576 21.024 25.9213 20.3147 26.164 19.456C26.4067 18.5787 26.528 17.5333 26.528 16.32C26.528 13.968 26.0707 12.2413 25.156 11.14C24.26 10.0387 22.9253 9.488 21.152 9.488C20.9093 9.488 20.6667 9.49733 20.424 9.516C20.2 9.516 19.9947 9.53467 19.808 9.572V23.068Z" fill="white"/>
</svg>
